<?xml version="1.0" standalone="no"?>
<!DOCTYPE svg PUBLIC "-//W3C//DTD SVG 20010904//EN"
 "http://www.w3.org/TR/2001/REC-SVG-20010904/DTD/svg10.dtd">
<svg version="1.0" xmlns="http://www.w3.org/2000/svg"
 width="891.000000pt" height="891.000000pt" viewBox="0 0 891.000000 891.000000"
 preserveAspectRatio="xMidYMid meet">
<metadata>
Created by potrace 1.11, written by Peter Selinger 2001-2013
</metadata>
<g transform="translate(0.000000,891.000000) scale(0.100000,-0.100000)"
fill="#000000" stroke="none">
<path d="M1369 8548 c-5 -70 -3 -537 3 -549 6 -14 55 -16 455 -15 246 1 453 0
460 -2 9 -3 11 -367 8 -1550 -11 -3985 -20 -5295 -40 -5491 -3 -35 -12 -78
-19 -95 -15 -34 -104 -126 -122 -126 -6 0 -17 -7 -24 -15 -12 -15 -130 -75
-146 -75 -5 0 -21 -6 -35 -14 -53 -27 -215 -45 -284 -32 -11 3 -41 8 -67 12
-27 3 -48 9 -48 13 0 3 -18 12 -39 18 -141 44 -302 197 -325 308 -20 97 -28
580 -30 1735 0 476 -5 871 -9 878 -5 7 -12 10 -16 7 -15 -9 -115 -14 -308 -15
-157 -1 -192 -4 -197 -16 -3 -8 -5 -614 -5 -1346 0 -1137 3 -1333 15 -1345 8
-8 14 -23 14 -34 0 -10 4 -19 8 -19 5 0 17 -18 27 -40 10 -22 22 -40 27 -40 5
0 6 -4 3 -10 -3 -5 -2 -10 4 -10 5 0 12 -8 16 -19 3 -10 13 -28 23 -38 9 -11
28 -35 42 -53 14 -18 40 -47 58 -64 18 -17 46 -43 62 -59 15 -15 31 -27 34
-27 3 0 15 -8 26 -18 31 -26 86 -57 180 -102 47 -22 93 -45 102 -50 10 -6 27
-10 37 -10 11 0 22 -4 25 -9 3 -5 20 -11 38 -14 18 -3 51 -10 73 -16 44 -11
92 -21 145 -29 57 -8 322 -12 334 -4 6 4 22 7 36 7 45 2 144 26 230 57 137 49
147 53 161 64 8 6 29 18 47 28 75 38 91 47 102 61 7 8 16 15 20 15 36 0 291
275 273 294 -4 3 -2 6 4 6 5 0 26 33 45 73 l36 72 6 3015 c7 3990 8 4662 7
4683 -1 16 -43 17 -736 17 -581 0 -735 -3 -736 -12z"/>
<path d="M6189 8554 c-4 -21 -6 -8400 -3 -8414 3 -13 40 -15 266 -15 145 0
268 3 273 7 7 4 10 565 9 1652 0 906 2 1648 5 1650 7 4 117 14 336 30 22 2 56
6 75 9 19 4 53 8 75 11 43 5 153 25 233 42 15 3 39 8 55 11 15 3 30 9 33 14 3
5 15 9 28 9 49 0 336 119 336 140 0 4 12 12 28 18 47 17 153 115 220 203 68
90 137 252 156 362 3 15 7 35 10 45 27 95 33 858 23 2785 -3 556 -8 852 -15
860 -6 6 -11 17 -12 22 -1 6 -6 20 -11 33 -5 13 -9 26 -9 29 0 9 -72 158 -79
163 -4 3 -21 25 -38 50 -35 50 -135 150 -152 150 -6 0 -11 4 -11 8 0 5 -17 17
-37 29 -21 11 -54 29 -73 40 -32 18 -65 30 -115 40 -29 7 -38 9 -57 17 -19 8
-183 3 -233 -8 -28 -6 -52 -12 -150 -39 -22 -6 -46 -15 -52 -20 -7 -5 -13 -7
-13 -4 0 4 -20 -2 -44 -13 -24 -10 -47 -16 -50 -13 -3 4 -6 1 -6 -5 0 -7 -6
-12 -14 -12 -25 0 -129 -60 -158 -91 -15 -16 -34 -29 -42 -29 -8 0 -21 -6 -28
-13 -7 -8 -23 -19 -34 -25 -12 -6 -41 -27 -65 -47 -24 -19 -48 -39 -54 -43
-47 -37 -61 -15 -64 98 -2 145 -10 243 -20 253 -12 12 -520 23 -522 11z m1477
-511 c77 -55 114 -131 124 -252 3 -47 6 -834 4 -1748 l-2 -1663 -23 -37 c-43
-72 -92 -146 -109 -163 -52 -52 -193 -120 -248 -120 -11 0 -24 -5 -27 -10 -4
-6 -10 -8 -14 -6 -3 2 -36 -1 -71 -9 -36 -7 -85 -16 -110 -19 -25 -3 -76 -11
-115 -16 -93 -14 -185 -22 -270 -24 l-70 -1 2 745 c1 410 3 1164 5 1676 l5
931 53 109 c60 120 128 237 141 242 5 2 9 8 9 14 0 6 10 21 23 35 44 50 163
168 187 188 44 36 137 95 149 95 6 0 11 4 11 10 0 5 12 13 28 16 15 4 32 10
37 15 6 4 42 14 80 22 80 16 151 5 201 -30z"/>
<path d="M3398 8530 c-12 -4 -13 -265 -12 -1580 2 -1805 10 -2522 28 -2670 11
-87 57 -251 78 -275 4 -5 8 -16 8 -26 0 -9 9 -28 21 -43 11 -14 18 -26 14 -26
-4 0 0 -6 7 -14 7 -8 24 -29 38 -47 40 -53 101 -122 131 -149 15 -14 42 -37
59 -53 17 -15 33 -27 36 -27 3 0 17 -11 32 -25 15 -14 36 -28 46 -31 11 -4 29
-15 40 -25 11 -11 25 -19 32 -19 6 0 17 -6 23 -14 7 -8 26 -18 42 -21 16 -4
29 -11 29 -16 0 -6 4 -8 8 -5 4 2 21 -2 37 -9 17 -7 58 -23 92 -35 l62 -22 1
-672 c1 -369 4 -995 6 -1391 2 -396 4 -829 4 -962 1 -182 4 -243 13 -244 69
-7 530 -2 533 6 2 5 5 696 8 1535 4 1499 5 1632 20 1698 7 29 32 53 62 58 14
2 288 135 294 143 3 3 32 26 65 51 61 45 178 158 205 199 8 13 23 32 33 44 10
11 20 31 23 44 4 12 10 21 14 18 4 -3 11 5 15 18 4 12 8 24 9 27 1 3 8 16 16
30 8 14 28 55 46 92 l31 67 2 748 c2 412 3 1396 4 2188 l2 1440 -267 0 c-146
0 -269 -2 -271 -5 -3 -3 -8 -914 -10 -2025 -3 -1111 -7 -2058 -10 -2105 -11
-167 -26 -240 -49 -240 -5 0 -6 -4 -3 -10 3 -5 1 -10 -4 -10 -6 0 -11 -6 -11
-12 0 -7 -12 -26 -26 -43 -14 -16 -31 -37 -38 -45 -23 -32 -173 -135 -188
-130 -4 2 -22 -4 -71 -19 -46 -15 -224 -21 -292 -10 -94 15 -115 21 -109 30 3
5 2 8 -3 7 -13 -5 -93 24 -93 34 0 4 -6 8 -13 8 -8 0 -45 29 -83 65 -38 36
-65 65 -61 65 5 0 2 7 -5 15 -26 29 -34 41 -66 97 l-33 57 -5 1968 c-7 2314
-7 2289 -17 2299 -9 9 -507 13 -529 4z"/>
</g>
</svg>
